HIERARCHY
ROOT root
{
	OFFSET	0.00	0.00	0.00
	CHANNELS 6 Xposition Yposition Zposition Zrotation Xrotation Yrotation
	JOINT back
	{
		OFFSET	 0.494700	-0.003154	-0.003150
		CHANNELS 3 Zrotation Xrotation Yrotation
		JOINT chest
		{
			OFFSET	 0.264817	 0.004177	 0.000000
			CHANNELS 3 Zrotation Xrotation Yrotation
			JOINT l_clavicle
			{
				OFFSET	 0.114550	 0.000716	-0.065320
				CHANNELS 3 Zrotation Xrotation Yrotation
				JOINT l_end_clavicle
				{
					OFFSET	 0.162817	-0.003802	 0.000069
					CHANNELS 3 Zrotation Xrotation Yrotation
					JOINT l_shoulder
					{
						OFFSET	 0.005511	-0.036537	 0.056010
						CHANNELS 3 Zrotation Xrotation Yrotation
						JOINT l_forearm
						{
							OFFSET	 0.293352	 0.004850	-0.038040
							CHANNELS 3 Zrotation Xrotation Yrotation
							JOINT l_end_wrist
							{
								OFFSET	 0.317021	-0.006522	 0.006333
								CHANNELS 3 Zrotation Xrotation Yrotation
								JOINT l_index1
								{
									OFFSET	 0.152748	-0.021000	-0.014320
									CHANNELS 3 Zrotation Xrotation Yrotation
									JOINT l_index2
									{
										OFFSET	 0.039283	 0.000000	 0.000000
										CHANNELS 3 Zrotation Xrotation Yrotation
										JOINT l_index3
										{
											OFFSET	 0.038151	 0.000000	 0.000000
											CHANNELS 3 Zrotation Xrotation Yrotation
											End Site
											{
												OFFSET	 0.038151	 0.000000	 0.000000
											}
										}
									}
								}
								JOINT l_middle1
								{
									OFFSET	 0.151723	 0.016194	-0.014667
									CHANNELS 3 Zrotation Xrotation Yrotation
									JOINT l_middle_2
									{
										OFFSET	 0.038269	 0.000000	 0.000000
										CHANNELS 3 Zrotation Xrotation Yrotation
										JOINT l_middle_3
										{
											OFFSET	 0.039743	 0.000000	 0.000000
											CHANNELS 3 Zrotation Xrotation Yrotation
											End Site
											{
												OFFSET	 0.039743	 0.000000	 0.000000
											}
										}
									}
								}
								JOINT l_pinky1
								{
									OFFSET	 0.117088	 0.077397	-0.013819
									CHANNELS 3 Zrotation Xrotation Yrotation
									JOINT l_pinky2
									{
										OFFSET	 0.028938	 0.000000	 0.000000
										CHANNELS 3 Zrotation Xrotation Yrotation
										JOINT l_pinky3
										{
											OFFSET	 0.027080	 0.000000	 0.000000
											CHANNELS 3 Zrotation Xrotation Yrotation
											End Site
											{
												OFFSET	 0.027080	 0.000000	 0.000000
											}
										}
									}
								}
								JOINT l_ring1
								{
									OFFSET	 0.137788	 0.047650	-0.014135
									CHANNELS 3 Zrotation Xrotation Yrotation
									JOINT l_ring2
									{
										OFFSET	 0.030749	 0.000000	 0.000000
										CHANNELS 3 Zrotation Xrotation Yrotation
										JOINT l_ring3
										{
											OFFSET	 0.032711	 0.000000	 0.000000
											CHANNELS 3 Zrotation Xrotation Yrotation
											End Site
											{
												OFFSET	 0.032711	 0.000000	 0.000000
											}
										}
									}
								}
								JOINT l_thumb1
								{
									OFFSET	 0.054053	-0.036728	-0.011261
									CHANNELS 3 Zrotation Xrotation Yrotation
									JOINT l_thumb_2
									{
										OFFSET	 0.051141	-0.005593	-0.001180
										CHANNELS 3 Zrotation Xrotation Yrotation
										JOINT l_thumb_3
										{
											OFFSET	 0.046422	-0.001905	 0.000191
											CHANNELS 3 Zrotation Xrotation Yrotation
											End Site
											{
												OFFSET	 0.046422	-0.001905	 0.000191
											}
										}
									}
								}
							}
						}
					}
				}
			}
			JOINT neck
			{
				OFFSET	 0.143918	 0.000470	 0.000000
				CHANNELS 3 Zrotation Xrotation Yrotation
				JOINT head
				{
					OFFSET	-0.005141	-0.004258	 0.061190
					CHANNELS 3 Zrotation Xrotation Yrotation
					End Site
					{
						OFFSET	-0.005141	-0.004258	 0.061190
					}
				}
			}
			JOINT r_clavicle
			{
				OFFSET	 0.114552	 0.000716	 0.065320
				CHANNELS 3 Zrotation Xrotation Yrotation
				JOINT r_end_clavicle
				{
					OFFSET	-0.162817	 0.003801	-0.000067
					CHANNELS 3 Zrotation Xrotation Yrotation
					JOINT r_shoulder
					{
						OFFSET	 0.002062	 0.026294	-0.022755
						CHANNELS 3 Zrotation Xrotation Yrotation
						JOINT r_forearm
						{
							OFFSET	-0.279907	-0.027041	 0.065271
							CHANNELS 3 Zrotation Xrotation Yrotation
							JOINT r_end_wrist
							{
								OFFSET	-0.317022	 0.006522	-0.006331
								CHANNELS 3 Zrotation Xrotation Yrotation
								JOINT r_index1
								{
									OFFSET	-0.152748	 0.021000	 0.014322
									CHANNELS 3 Zrotation Xrotation Yrotation
									JOINT r_index2
									{
										OFFSET	-0.039280	 0.000000	-0.000001
										CHANNELS 3 Zrotation Xrotation Yrotation
										JOINT r_index3
										{
											OFFSET	-0.038152	 0.000000	-0.000001
											CHANNELS 3 Zrotation Xrotation Yrotation
											End Site
											{
												OFFSET	-0.038152	 0.000000	-0.000001
											}
										}
									}
								}
								JOINT r_middle1
								{
									OFFSET	-0.151722	-0.016194	 0.014664
									CHANNELS 3 Zrotation Xrotation Yrotation
									JOINT r_middle_2
									{
										OFFSET	-0.038270	 0.000000	 0.000003
										CHANNELS 3 Zrotation Xrotation Yrotation
										JOINT r_middle_3
										{
											OFFSET	-0.039744	 0.000000	 0.000000
											CHANNELS 3 Zrotation Xrotation Yrotation
											End Site
											{
												OFFSET	-0.039744	 0.000000	 0.000000
											}
										}
									}
								}
								JOINT r_pinky1
								{
									OFFSET	-0.117090	-0.077397	 0.013818
									CHANNELS 3 Zrotation Xrotation Yrotation
									JOINT r_pinky2
									{
										OFFSET	-0.028938	 0.000000	 0.000000
										CHANNELS 3 Zrotation Xrotation Yrotation
										JOINT r_pinky3
										{
											OFFSET	-0.027079	-0.000001	 0.000000
											CHANNELS 3 Zrotation Xrotation Yrotation
											End Site
											{
												OFFSET	-0.027079	-0.000001	 0.000000
											}
										}
									}
								}
								JOINT r_ring1
								{
									OFFSET	-0.137790	-0.047650	 0.014136
									CHANNELS 3 Zrotation Xrotation Yrotation
									JOINT r_ring2
									{
										OFFSET	-0.030748	 0.000000	-0.000001
										CHANNELS 3 Zrotation Xrotation Yrotation
										JOINT r_ring3
										{
											OFFSET	-0.032707	-0.000001	 0.000003
											CHANNELS 3 Zrotation Xrotation Yrotation
											End Site
											{
												OFFSET	-0.032707	-0.000001	 0.000003
											}
										}
									}
								}
								JOINT r_thumb1
								{
									OFFSET	-0.054054	 0.036728	 0.011262
									CHANNELS 3 Zrotation Xrotation Yrotation
									JOINT r_thumb_2
									{
										OFFSET	-0.051140	 0.005594	 0.001177
										CHANNELS 3 Zrotation Xrotation Yrotation
										JOINT r_thumb_3
										{
											OFFSET	-0.046419	 0.001906	-0.000190
											CHANNELS 3 Zrotation Xrotation Yrotation
											End Site
											{
												OFFSET	-0.046419	 0.001906	-0.000190
											}
										}
									}
								}
							}
						}
					}
				}
			}
		}
	}
	JOINT Pelvis
	{
		OFFSET	 0.153808	-0.002935	-0.002617
		CHANNELS 3 Zrotation Xrotation Yrotation
		JOINT l_thigh
		{
			OFFSET	 0.145220	-0.127337	 0.003593
			CHANNELS 3 Zrotation Xrotation Yrotation
			End Site
			{
				OFFSET	 0.145220	-0.127337	 0.003593
			}
		}
		JOINT r_thigh
		{
			OFFSET	 0.143035	 0.137869	 0.004460
			CHANNELS 3 Zrotation Xrotation Yrotation
			End Site
			{
				OFFSET	 0.143035	 0.137869	 0.004460
			}
		}
	}
}
MOTION
Frames:    5
Frame Time: 0.01666667
-0.002078	-0.109556	 0.018279	 171.765900	 3.962353	-87.650460	-11.204520	 4.097809	-1.837961	-9.857138	 9.765450	-1.977446	 1.554609	-6.294872	 110.446400	-0.813313	 0.122417	-8.559153	-52.657260	-23.823600	 21.998450	-3.342257	 32.378450	 1.122690	-12.007100	 26.610120	-67.361930	-5.466561	-2.015671	 9.912610	 2.503324	-1.126932	 4.512146	 3.269194	-0.634905	-79.900480	 3.779586	 3.094362	 11.955400	-0.275905	 3.148022	 9.006140	 2.903998	 4.341589	-70.265250	 37.123340	 19.692060	 15.063070	-6.822537	 19.211440	 10.820750	-5.638415	 19.245740	-70.204030	 18.312520	 10.318960	 21.434960	-3.898858	 9.395122	 9.460192	-0.473463	 9.974930	-72.425380	-57.438930	-11.466210	 6.689446	 9.284960	-0.525222	 0.082313	-19.390840	-0.175535	 3.200025	 1.196121	-8.207825	 90.417050	-96.732170	 1.486698	-140.941400	-179.566300	-2.233808	 91.638080	-0.813313	 0.122417	-8.559153	-55.660100	-38.063020	-17.037850	-83.557860	-3.551153	-11.119390	-22.863240	 11.011080	-63.477950	-14.373590	-8.401652	 72.965800	 2.455832	-1.173263	 84.675870	 1.457952	 1.686322	-20.441170	-4.765712	-4.487205	 69.522760	-0.136283	 3.279124	 77.408150	 0.287354	 7.178489	-13.520440	 29.838080	 12.370980	 57.285820	-6.031372	 19.802390	 66.151820	-4.745097	 19.547700	-22.471880	 14.387400	 5.454593	 67.450670	-3.487324	 9.753246	 73.624150	-1.893740	 12.083640	-11.116470	-31.679660	 0.027288	 30.040930	 41.115660	-0.535431	 0.356574	 44.503600	-0.400720	 3.702951	 0.000000	 90.000000	 0.000000	 170.484200	 6.884975	 170.555900	-176.856900	-2.263776	-5.405233
-0.001979	-0.109428	 0.018260	 171.756400	 3.941252	-87.640400	-11.200670	 4.100537	-1.830450	-9.855411	 9.774262	-1.971699	 1.552524	-6.286947	 110.445800	-0.813313	 0.122417	-8.559153	-52.663600	-23.823850	 21.992740	-3.342681	 32.389440	 1.122711	-12.080360	 26.666250	-67.414310	-5.466561	-2.015671	 9.912610	 2.503324	-1.126932	 4.512146	 3.269194	-0.634905	-79.900480	 3.779914	 3.094506	 11.955380	-0.275905	 3.148022	 9.006140	 2.904010	 4.341545	-70.265910	 37.123860	 19.692260	 15.062890	-6.822537	 19.211440	 10.820750	-5.638434	 19.245740	-70.204960	 18.312860	 10.319140	 21.434900	-3.898858	 9.395122	 9.460192	-0.473463	 9.974930	-72.425380	-57.438220	-11.466110	 6.689316	 9.284960	-0.525222	 0.082313	-19.390840	-0.175535	 3.200025	 1.195104	-8.240496	 90.415410	-96.756050	 1.506495	-141.048000	-179.563100	-2.270588	 91.619320	-0.813313	 0.122417	-8.559153	-55.876680	-38.063660	-17.132420	-82.874800	-3.767670	-11.066480	-23.011760	 10.984060	-63.340590	-14.370120	-8.394937	 72.938250	 2.455835	-1.173228	 84.636370	 1.459404	 1.685726	-20.471490	-4.763861	-4.483545	 69.510830	-0.136288	 3.279103	 77.400990	 0.287903	 7.178300	-13.528620	 29.844480	 12.381450	 57.252800	-6.031422	 19.802290	 66.145200	-4.745265	 19.547550	-22.483220	 14.388270	 5.458356	 67.420130	-3.487341	 9.753190	 73.617520	-1.893403	 12.083480	-11.124980	-31.698410	 0.008144	 30.006900	 41.072480	-0.535528	 0.356209	 44.418170	-0.400817	 3.702179	 0.000000	 90.000000	 0.000000	 170.478400	 6.883087	 170.594400	-176.862200	-2.264486	-5.376214
-0.001833	-0.109238	 0.018239	 171.746800	 3.916995	-87.626080	-11.197710	 4.103753	-1.821671	-9.855165	 9.785871	-1.964982	 1.550055	-6.277554	 110.445000	-0.813313	 0.122417	-8.559153	-52.670980	-23.824370	 21.987200	-3.343137	 32.403710	 1.122694	-12.165530	 26.736730	-67.500270	-5.466561	-2.015671	 9.912610	 2.503324	-1.126932	 4.512146	 3.269194	-0.634905	-79.900480	 3.780300	 3.094676	 11.955370	-0.275905	 3.148022	 9.006140	 2.904024	 4.341492	-70.266650	 37.124520	 19.692500	 15.062670	-6.822537	 19.211440	 10.820750	-5.638456	 19.245740	-70.206050	 18.313280	 10.319360	 21.434820	-3.898858	 9.395122	 9.460192	-0.473463	 9.974930	-72.425380	-57.437390	-11.465990	 6.689145	 9.284960	-0.525222	 0.082313	-19.390840	-0.175535	 3.200025	 1.194259	-8.280827	 90.413540	-96.784740	 1.532447	-141.192500	-179.559700	-2.310302	 91.605510	-0.813313	 0.122417	-8.559153	-56.113510	-38.067460	-17.230690	-82.274560	-3.974064	-11.008910	-23.114040	 10.917470	-63.186950	-14.365970	-8.386905	 72.905240	 2.455839	-1.173186	 84.589070	 1.461143	 1.685011	-20.507810	-4.761825	-4.479529	 69.497790	-0.136289	 3.279099	 77.399650	 0.288031	 7.178256	-13.530530	 29.851290	 12.392730	 57.216700	-6.031428	 19.802260	 66.144030	-4.745311	 19.547510	-22.486290	 14.388230	 5.461267	 67.386760	-3.487344	 9.753177	 73.616050	-1.893329	 12.083440	-11.126840	-31.720890	-0.014804	 29.966070	 41.020700	-0.535629	 0.355768	 44.315750	-0.400950	 3.701260	 0.000000	 90.000000	 0.000000	 170.469400	 6.880799	 170.646900	-176.869800	-2.264781	-5.326299
-0.001691	-0.109058	 0.018225	 171.740400	 3.897596	-87.611950	-11.196510	 4.106453	-1.814279	-9.856411	 9.796722	-1.959294	 1.547970	-6.269625	 110.444300	-0.813313	 0.122417	-8.559153	-52.677050	-23.824990	 21.983700	-3.343579	 32.416970	 1.122698	-12.231540	 26.797410	-67.592710	-5.466561	-2.015671	 9.912610	 2.503324	-1.126932	 4.512146	 3.269194	-0.634905	-79.900480	 3.780686	 3.094844	 11.955340	-0.275905	 3.148022	 9.006140	 2.904034	 4.341448	-70.267300	 37.125150	 19.692740	 15.062450	-6.822537	 19.211440	 10.820750	-5.638475	 19.245740	-70.206980	 18.313710	 10.319580	 21.434730	-3.898858	 9.395122	 9.460192	-0.473463	 9.974930	-72.425380	-57.436680	-11.465880	 6.689011	 9.284960	-0.525222	 0.082313	-19.390840	-0.175535	 3.200025	 1.193876	-8.315829	 90.412010	-96.809690	 1.556150	-141.327700	-179.557100	-2.339864	 91.599480	-0.813313	 0.122417	-8.559153	-56.292120	-38.072290	-17.301840	-81.911890	-4.111753	-10.966330	-23.111580	 10.822960	-63.076780	-14.362370	-8.379958	 72.876720	 2.455843	-1.173149	 84.548170	 1.462647	 1.684393	-20.539200	-4.760224	-4.476368	 69.487490	-0.136287	 3.279110	 77.403520	 0.287771	 7.178346	-13.526650	 29.856480	 12.401450	 57.188230	-6.031401	 19.802330	 66.147770	-4.745240	 19.547570	-22.481550	 14.387430	 5.462626	 67.360470	-3.487336	 9.753205	 73.619360	-1.893499	 12.083520	-11.122540	-31.740370	-0.034656	 29.930700	 40.975860	-0.535722	 0.355388	 44.227050	-0.401053	 3.700459	 0.000000	 90.000000	 0.000000	 170.460300	 6.878850	 170.695400	-176.877200	-2.264622	-5.275467
-0.001539	-0.108877	 0.018216	 171.735700	 3.880173	-87.596250	-11.196470	 4.109128	-1.806991	-9.858863	 9.808367	-1.953670	 1.545929	-6.261863	 110.443600	-0.813313	 0.122417	-8.559153	-52.682880	-23.825860	 21.981520	-3.344063	 32.431280	 1.122691	-12.286080	 26.855490	-67.701090	-5.466561	-2.015671	 9.912610	 2.503324	-1.126932	 4.512146	 3.269194	-0.634905	-79.900480	 3.781090	 3.095021	 11.955320	-0.275905	 3.148022	 9.006140	 2.904046	 4.341404	-70.267940	 37.125820	 19.692980	 15.062230	-6.822537	 19.211440	 10.820750	-5.638493	 19.245740	-70.207900	 18.314170	 10.319820	 21.434640	-3.898858	 9.395122	 9.460192	-0.473463	 9.974930	-72.425380	-57.435980	-11.465780	 6.688865	 9.284960	-0.525222	 0.082313	-19.390840	-0.175535	 3.200025	 1.193770	-8.350398	 90.410520	-96.835020	 1.580574	-141.470000	-179.554900	-2.364337	 91.598210	-0.813313	 0.122417	-8.559153	-56.441930	-38.077700	-17.360070	-81.625380	-4.225139	-10.931200	-23.049980	 10.710930	-62.990720	-14.358740	-8.372963	 72.847980	 2.455847	-1.173112	 84.506950	 1.464162	 1.683768	-20.570850	-4.758755	-4.473459	 69.477960	-0.136282	 3.279132	 77.411000	 0.287241	 7.178529	-13.518750	 29.861140	 12.409370	 57.161910	-6.031345	 19.802440	 66.154950	-4.745090	 19.547700	-22.471410	 14.386040	 5.463064	 67.336200	-3.487318	 9.753262	 73.626010	-1.893837	 12.083680	-11.114000	-31.760060	-0.054691	 29.895010	 40.930620	-0.535820	 0.355006	 44.137550	-0.401160	 3.699653	 0.000000	 90.000000	 0.000000	 170.450000	 6.877071	 170.744900	-176.885700	-2.264155	-5.221887
